<svg width="72" height="72" viewBox="0 0 72 72" fill="none" xmlns="http://www.w3.org/2000/svg">
<path d="M64 20C64 17.7909 65.7909 16 68 16C70.2091 16 72 17.7909 72 20C72 22.2091 70.2091 24 68 24C65.7909 24 64 22.2091 64 20Z" fill="#E4A30B"/>
<path d="M64 4C64 1.79086 65.7909 0 68 0C70.2091 0 72 1.79086 72 4C72 6.20914 70.2091 8 68 8C65.7909 8 64 6.20914 64 4Z" fill="#E4A30B"/>
<path d="M48 52C48 49.7909 49.7909 48 52 48C54.2091 48 56 49.7909 56 52C56 54.2091 54.2091 56 52 56C49.7909 56 48 54.2091 48 52Z" fill="#E4A30B"/>
<path d="M48 36C48 33.7909 49.7909 32 52 32C54.2091 32 56 33.7909 56 36C56 38.2091 54.2091 40 52 40C49.7909 40 48 38.2091 48 36Z" fill="#E4A30B"/>
<path d="M48 20C48 17.7909 49.7909 16 52 16C54.2091 16 56 17.7909 56 20C56 22.2091 54.2091 24 52 24C49.7909 24 48 22.2091 48 20Z" fill="#E4A30B"/>
<path d="M48 4C48 1.79086 49.7909 0 52 0C54.2091 0 56 1.79086 56 4C56 6.20914 54.2091 8 52 8C49.7909 8 48 6.20914 48 4Z" fill="#E4A30B"/>
<path d="M32 52C32 49.7909 33.7909 48 36 48C38.2091 48 40 49.7909 40 52C40 54.2091 38.2091 56 36 56C33.7909 56 32 54.2091 32 52Z" fill="#E4A30B"/>
<path d="M32 36C32 33.7909 33.7909 32 36 32C38.2091 32 40 33.7909 40 36C40 38.2091 38.2091 40 36 40C33.7909 40 32 38.2091 32 36Z" fill="#E4A30B"/>
<path d="M32 20C32 17.7909 33.7909 16 36 16C38.2091 16 40 17.7909 40 20C40 22.2091 38.2091 24 36 24C33.7909 24 32 22.2091 32 20Z" fill="#E4A30B"/>
<path d="M32 4C32 1.79086 33.7909 0 36 0C38.2091 0 40 1.79086 40 4C40 6.20914 38.2091 8 36 8C33.7909 8 32 6.20914 32 4Z" fill="#E4A30B"/>
<path d="M16 68C16 65.7909 17.7909 64 20 64C22.2091 64 24 65.7909 24 68C24 70.2091 22.2091 72 20 72C17.7909 72 16 70.2091 16 68Z" fill="#E4A30B"/>
<path d="M16 52C16 49.7909 17.7909 48 20 48C22.2091 48 24 49.7909 24 52C24 54.2091 22.2091 56 20 56C17.7909 56 16 54.2091 16 52Z" fill="#E4A30B"/>
<path d="M16 36C16 33.7909 17.7909 32 20 32C22.2091 32 24 33.7909 24 36C24 38.2091 22.2091 40 20 40C17.7909 40 16 38.2091 16 36Z" fill="#E4A30B"/>
<path d="M16 20C16 17.7909 17.7909 16 20 16C22.2091 16 24 17.7909 24 20C24 22.2091 22.2091 24 20 24C17.7909 24 16 22.2091 16 20Z" fill="#E4A30B"/>
<path d="M16 4C16 1.79086 17.7909 0 20 0C22.2091 0 24 1.79086 24 4C24 6.20914 22.2091 8 20 8C17.7909 8 16 6.20914 16 4Z" fill="#E4A30B"/>
<path d="M0 68C0 65.7909 1.79086 64 4 64C6.20914 64 8 65.7909 8 68C8 70.2091 6.20914 72 4 72C1.79086 72 0 70.2091 0 68Z" fill="#E4A30B"/>
<path d="M0 52C0 49.7909 1.79086 48 4 48C6.20914 48 8 49.7909 8 52C8 54.2091 6.20914 56 4 56C1.79086 56 0 54.2091 0 52Z" fill="#E4A30B"/>
<path d="M0 36C0 33.7909 1.79086 32 4 32C6.20914 32 8 33.7909 8 36C8 38.2091 6.20914 40 4 40C1.79086 40 0 38.2091 0 36Z" fill="#E4A30B"/>
<path d="M0 20C0 17.7909 1.79086 16 4 16C6.20914 16 8 17.7909 8 20C8 22.2091 6.20914 24 4 24C1.79086 24 0 22.2091 0 20Z" fill="#E4A30B"/>
<path d="M0 4C0 1.79086 1.79086 0 4 0C6.20914 0 8 1.79086 8 4C8 6.20914 6.20914 8 4 8C1.79086 8 0 6.20914 0 4Z" fill="#E4A30B"/>
</svg>
