<svg width="73" height="73" viewBox="0 0 73 73" fill="none" xmlns="http://www.w3.org/2000/svg">
<path d="M20.2245 8.07012C18.0153 8.06237 16.2308 6.26524 16.2385 4.05612C16.2463 1.84699 18.0434 0.0624233 20.2525 0.0701719C22.4616 0.0779206 24.2462 1.87505 24.2385 4.08418C24.2307 6.2933 22.4336 8.07787 20.2245 8.07012Z" fill="#DEDEDE"/>
<path d="M4.22455 8.014C2.01543 8.00625 0.230861 6.20912 0.238609 4C0.246358 1.79087 2.04349 0.00630283 4.25261 0.0140514C6.46174 0.0218001 8.24631 1.81893 8.23856 4.02806C8.23081 6.23718 6.43368 8.02175 4.22455 8.014Z" fill="#DEDEDE"/>
<path d="M52.1681 24.1823C49.959 24.1745 48.1744 22.3774 48.1822 20.1683C48.1899 17.9591 49.9871 16.1746 52.1962 16.1823C54.4053 16.1901 56.1899 17.9872 56.1821 20.1963C56.1744 22.4054 54.3773 24.19 52.1681 24.1823Z" fill="#DEDEDE"/>
<path d="M36.1682 24.1261C33.9591 24.1184 32.1745 22.3213 32.1823 20.1121C32.19 17.903 33.9872 16.1184 36.1963 16.1262C38.4054 16.1339 40.19 17.9311 40.1822 20.1402C40.1745 22.3493 38.3774 24.1339 36.1682 24.1261Z" fill="#DEDEDE"/>
<path d="M20.1683 24.07C17.9592 24.0623 16.1746 22.2651 16.1824 20.056C16.1901 17.8469 17.9873 16.0623 20.1964 16.0701C22.4055 16.0778 24.1901 17.875 24.1823 20.0841C24.1746 22.2932 22.3775 24.0778 20.1683 24.07Z" fill="#DEDEDE"/>
<path d="M4.16843 24.0139C1.95931 24.0062 0.17474 22.209 0.182489 19.9999C0.190237 17.7908 1.98737 16.0062 4.19649 16.014C6.40562 16.0217 8.19019 17.8188 8.18244 20.028C8.17469 22.2371 6.37756 24.0217 4.16843 24.0139Z" fill="#DEDEDE"/>
<path d="M52.112 40.1822C49.9029 40.1744 48.1183 38.3773 48.1261 36.1682C48.1338 33.959 49.931 32.1745 52.1401 32.1822C54.3492 32.19 56.1338 33.9871 56.126 36.1962C56.1183 38.4053 54.3211 40.1899 52.112 40.1822Z" fill="#DEDEDE"/>
<path d="M36.1121 40.126C33.903 40.1183 32.1184 38.3212 32.1262 36.112C32.1339 33.9029 33.9311 32.1183 36.1402 32.1261C38.3493 32.1338 40.1339 33.931 40.1261 36.1401C40.1184 38.3492 38.3212 40.1338 36.1121 40.126Z" fill="#DEDEDE"/>
<path d="M20.1122 40.0699C17.9031 40.0622 16.1185 38.265 16.1263 36.0559C16.134 33.8468 17.9311 32.0622 20.1403 32.07C22.3494 32.0777 24.134 33.8749 24.1262 36.084C24.1185 38.2931 22.3213 40.0777 20.1122 40.0699Z" fill="#DEDEDE"/>
<path d="M4.11231 40.0138C1.90319 40.0061 0.11862 38.2089 0.126368 35.9998C0.134117 33.7907 1.93125 32.0061 4.14037 32.0139C6.3495 32.0216 8.13407 33.8187 8.12632 36.0279C8.11857 38.237 6.32144 40.0216 4.11231 40.0138Z" fill="#DEDEDE"/>
<path d="M68.0558 56.2382C65.8467 56.2304 64.0621 54.4333 64.0699 52.2242C64.0776 50.0151 65.8747 48.2305 68.0839 48.2382C70.293 48.246 72.0776 50.0431 72.0698 52.2522C72.0621 54.4614 70.2649 56.2459 68.0558 56.2382Z" fill="#DEDEDE"/>
<path d="M52.0559 56.1821C49.8468 56.1743 48.0622 54.3772 48.07 52.1681C48.0777 49.9589 49.8748 48.1744 52.084 48.1821C54.2931 48.1899 56.0777 49.987 56.0699 52.1961C56.0622 54.4053 54.265 56.1898 52.0559 56.1821Z" fill="#DEDEDE"/>
<path d="M36.056 56.1259C33.8469 56.1182 32.0623 54.3211 32.0701 52.1119C32.0778 49.9028 33.8749 48.1182 36.0841 48.126C38.2932 48.1337 40.0778 49.9309 40.07 52.14C40.0623 54.3491 38.2651 56.1337 36.056 56.1259Z" fill="#DEDEDE"/>
<path d="M20.0561 56.0698C17.847 56.0621 16.0624 54.2649 16.0701 52.0558C16.0779 49.8467 17.875 48.0621 20.0842 48.0699C22.2933 48.0776 24.0778 49.8748 24.0701 52.0839C24.0624 54.293 22.2652 56.0776 20.0561 56.0698Z" fill="#DEDEDE"/>
<path d="M4.05619 56.0137C1.84707 56.006 0.0624991 54.2088 0.0702477 51.9997C0.0779964 49.7906 1.87513 48.006 4.08425 48.0138C6.29338 48.0215 8.07795 49.8186 8.0702 52.0278C8.06245 54.2369 6.26532 56.0215 4.05619 56.0137Z" fill="#DEDEDE"/>
<path d="M67.9997 72.2381C65.7906 72.2303 64.006 70.4332 64.0137 68.2241C64.0215 66.015 65.8186 64.2304 68.0277 64.2381C70.2369 64.2459 72.0214 66.043 72.0137 68.2521C72.0059 70.4613 70.2088 72.2458 67.9997 72.2381Z" fill="#DEDEDE"/>
<path d="M51.9998 72.182C49.7907 72.1742 48.0061 70.3771 48.0138 68.168C48.0216 65.9588 49.8187 64.1743 52.0278 64.182C54.237 64.1898 56.0215 65.9869 56.0138 68.196C56.006 70.4051 54.2089 72.1897 51.9998 72.182Z" fill="#DEDEDE"/>
<path d="M35.9999 72.1259C33.7907 72.1181 32.0062 70.321 32.0139 68.1118C32.0217 65.9027 33.8188 64.1182 36.0279 64.1259C38.2371 64.1336 40.0216 65.9308 40.0139 68.1399C40.0061 70.349 38.209 72.1336 35.9999 72.1259Z" fill="#DEDEDE"/>
<path d="M20 72.0697C17.7908 72.062 16.0063 70.2648 16.014 68.0557C16.0218 65.8466 17.8189 64.062 20.028 64.0698C22.2372 64.0775 24.0217 65.8747 24.014 68.0838C24.0062 70.2929 22.2091 72.0775 20 72.0697Z" fill="#DEDEDE"/>
<path d="M4.00007 72.0136C1.79095 72.0059 0.00637865 70.2087 0.0141273 67.9996C0.0218759 65.7905 1.81901 64.0059 4.02813 64.0137C6.23726 64.0214 8.02183 65.8185 8.01408 68.0277C8.00633 70.2368 6.2092 72.0214 4.00007 72.0136Z" fill="#DEDEDE"/>
</svg>
