<svg width="164" height="38" viewBox="0 0 164 38" fill="none" xmlns="http://www.w3.org/2000/svg">
<g clip-path="url(#clip0_17_153)">
<path d="M24.688 30.072C23.876 30.072 23.218 29.82 22.714 29.316C22.238 28.812 22 28.154 22 27.342V2.772C22 1.96 22.224 1.33 22.672 0.882C23.148 0.434 23.792 0.21 24.604 0.21H39.346C41.054 0.21 41.908 0.938 41.908 2.394C41.908 3.822 41.054 4.536 39.346 4.536H27.334V12.6H38.506C40.214 12.6 41.068 13.328 41.068 14.784C41.068 16.212 40.214 16.926 38.506 16.926H27.334V27.342C27.334 28.154 27.096 28.812 26.62 29.316C26.144 29.82 25.5 30.072 24.688 30.072ZM49.613 30.072C48.857 30.072 48.227 29.862 47.723 29.442C47.247 28.994 47.009 28.364 47.009 27.552V2.478C47.009 1.666 47.247 1.05 47.723 0.63C48.227 0.21 48.857 0 49.613 0C50.369 0 50.999 0.21 51.503 0.63C52.007 1.05 52.259 1.666 52.259 2.478V27.552C52.259 28.364 52.007 28.994 51.503 29.442C50.999 29.862 50.369 30.072 49.613 30.072ZM73.927 24.192C74.403 24.192 74.781 24.374 75.061 24.738C75.369 25.102 75.523 25.592 75.523 26.208C75.523 27.076 75.005 27.804 73.969 28.392C73.017 28.924 71.939 29.358 70.735 29.694C69.531 30.002 68.383 30.156 67.291 30.156C63.987 30.156 61.369 29.204 59.437 27.3C57.505 25.396 56.539 22.792 56.539 19.488C56.539 17.388 56.959 15.526 57.799 13.902C58.639 12.278 59.815 11.018 61.327 10.122C62.867 9.226 64.603 8.778 66.535 8.778C68.383 8.778 69.993 9.184 71.365 9.996C72.737 10.808 73.801 11.956 74.557 13.44C75.313 14.924 75.691 16.674 75.691 18.69C75.691 19.894 75.159 20.496 74.095 20.496H61.705C61.873 22.428 62.419 23.856 63.343 24.78C64.267 25.676 65.611 26.124 67.375 26.124C68.271 26.124 69.055 26.012 69.727 25.788C70.427 25.564 71.211 25.256 72.079 24.864C72.919 24.416 73.535 24.192 73.927 24.192ZM66.66 12.474C65.232 12.474 64.084 12.922 63.216 13.818C62.376 14.714 61.872 16.002 61.704 17.682H71.196C71.14 15.974 70.72 14.686 69.936 13.818C69.152 12.922 68.06 12.474 66.66 12.474ZM97.383 25.956C97.887 26.46 98.139 27.034 98.139 27.678C98.139 28.294 97.901 28.854 97.425 29.358C96.949 29.834 96.389 30.072 95.745 30.072C95.045 30.072 94.443 29.778 93.939 29.19L88.017 22.638L82.095 29.19C81.563 29.75 80.961 30.03 80.289 30.03C79.673 30.03 79.127 29.792 78.651 29.316C78.175 28.84 77.937 28.294 77.937 27.678C77.937 27.034 78.189 26.46 78.693 25.956L84.825 19.278L79.029 12.978C78.525 12.474 78.273 11.9 78.273 11.256C78.273 10.612 78.511 10.066 78.987 9.618C79.463 9.142 80.009 8.904 80.625 8.904C81.297 8.904 81.899 9.184 82.431 9.744L88.017 15.876L93.603 9.744C94.135 9.184 94.737 8.904 95.409 8.904C96.053 8.904 96.599 9.142 97.047 9.618C97.523 10.066 97.761 10.612 97.761 11.256C97.761 11.9 97.509 12.474 97.005 12.978L91.209 19.278L97.383 25.956ZM120.619 14.532C122.327 15.008 123.643 15.876 124.567 17.136C125.519 18.396 125.995 19.936 125.995 21.756C125.995 24.276 125.085 26.25 123.265 27.678C121.473 29.106 118.995 29.82 115.831 29.82H104.995C104.183 29.82 103.539 29.596 103.063 29.148C102.615 28.7 102.391 28.07 102.391 27.258V2.772C102.391 1.96 102.615 1.33 103.063 0.882C103.539 0.434 104.183 0.21 104.995 0.21H115.41C118.49 0.21 120.898 0.896 122.634 2.268C124.398 3.612 125.28 5.502 125.28 7.938C125.28 9.506 124.86 10.864 124.02 12.012C123.208 13.16 122.074 14 120.618 14.532H120.619ZM107.683 12.684H114.529C118.253 12.684 120.115 11.298 120.115 8.526C120.115 7.126 119.653 6.09 118.729 5.418C117.805 4.746 116.405 4.41 114.529 4.41H107.683V12.684ZM115.243 25.62C117.203 25.62 118.631 25.27 119.527 24.57C120.423 23.87 120.871 22.778 120.871 21.294C120.871 19.81 120.409 18.704 119.485 17.976C118.589 17.248 117.175 16.884 115.243 16.884H107.683V25.62H115.243ZM133.203 30.072C132.447 30.072 131.817 29.862 131.313 29.442C130.837 28.994 130.599 28.364 130.599 27.552V2.478C130.599 1.666 130.837 1.05 131.313 0.63C131.817 0.21 132.447 0 133.203 0C133.959 0 134.589 0.21 135.093 0.63C135.597 1.05 135.849 1.666 135.849 2.478V27.552C135.849 28.364 135.597 28.994 135.093 29.442C134.589 29.862 133.959 30.072 133.203 30.072ZM150.629 30.156C148.529 30.156 146.681 29.722 145.085 28.854C143.517 27.986 142.299 26.74 141.431 25.116C140.563 23.492 140.129 21.602 140.129 19.446C140.129 17.29 140.563 15.414 141.431 13.818C142.299 12.194 143.517 10.948 145.085 10.08C146.681 9.212 148.529 8.778 150.629 8.778C152.729 8.778 154.563 9.212 156.131 10.08C157.703 10.923 158.978 12.2277 159.785 13.818C160.653 15.414 161.087 17.29 161.087 19.446C161.087 21.602 160.653 23.492 159.785 25.116C158.978 26.7063 157.703 28.011 156.131 28.854C154.563 29.722 152.729 30.156 150.629 30.156ZM150.587 26.082C152.295 26.082 153.597 25.522 154.493 24.402C155.389 23.282 155.837 21.63 155.837 19.446C155.837 17.29 155.389 15.652 154.493 14.532C153.597 13.384 152.309 12.81 150.629 12.81C148.949 12.81 147.647 13.384 146.723 14.532C145.827 15.652 145.379 17.29 145.379 19.446C145.379 21.63 145.827 23.282 146.723 24.402C147.619 25.522 148.907 26.082 150.587 26.082ZM182.809 8.862C183.593 8.862 184.223 9.086 184.699 9.534C185.175 9.982 185.413 10.584 185.413 11.34V27.93C185.413 31.15 184.517 33.586 182.725 35.238C180.933 36.89 178.287 37.716 174.787 37.716C171.735 37.716 169.187 37.142 167.143 35.994C166.107 35.378 165.589 34.636 165.589 33.768C165.589 33.152 165.729 32.662 166.009 32.298C166.317 31.934 166.709 31.752 167.185 31.752C167.437 31.752 167.745 31.808 168.109 31.92C168.473 32.06 168.851 32.214 169.243 32.382C170.251 32.802 171.147 33.124 171.931 33.348C172.743 33.572 173.667 33.684 174.703 33.684C178.371 33.684 180.205 31.892 180.205 28.308V25.62C179.589 26.768 178.693 27.664 177.517 28.308C176.341 28.924 174.997 29.232 173.485 29.232C171.693 29.232 170.097 28.812 168.697 27.972C167.325 27.104 166.247 25.9 165.463 24.36C164.679 22.82 164.287 21.042 164.287 19.026C164.287 17.01 164.665 15.232 165.421 13.692C166.205 12.124 167.297 10.92 168.697 10.08C170.097 9.212 171.693 8.778 173.485 8.778C174.997 8.778 176.341 9.1 177.517 9.744C178.663 10.3302 179.601 11.2537 180.205 12.39V11.298C180.205 10.57 180.443 9.982 180.919 9.534C181.395 9.086 182.025 8.862 182.809 8.862ZM174.871 25.158C176.551 25.158 177.853 24.612 178.777 23.52C179.729 22.428 180.205 20.93 180.205 19.026C180.205 17.094 179.729 15.582 178.777 14.49C177.853 13.398 176.551 12.852 174.871 12.852C173.219 12.852 171.917 13.398 170.965 14.49C170.013 15.582 169.537 17.094 169.537 19.026C169.537 20.93 170.013 22.428 170.965 23.52C171.917 24.612 173.219 25.158 174.871 25.158Z" fill="#9C9C9C"/>
</g>
<defs>
<clipPath id="clip0_17_153">
<rect width="164" height="38" fill="white"/>
</clipPath>
</defs>
</svg>
