<svg width="72" height="72" viewBox="0 0 72 72" fill="none" xmlns="http://www.w3.org/2000/svg">
<path d="M8 20C8 17.7909 6.20914 16 4 16C1.79086 16 0 17.7909 0 20C0 22.2091 1.79086 24 4 24C6.20914 24 8 22.2091 8 20Z" fill="#2E2E2E"/>
<path d="M8 4C8 1.79086 6.20914 0 4 0C1.79086 0 0 1.79086 0 4C0 6.20914 1.79086 8 4 8C6.20914 8 8 6.20914 8 4Z" fill="#2E2E2E"/>
<path d="M24 52C24 49.7909 22.2091 48 20 48C17.7909 48 16 49.7909 16 52C16 54.2091 17.7909 56 20 56C22.2091 56 24 54.2091 24 52Z" fill="#2E2E2E"/>
<path d="M24 36C24 33.7909 22.2091 32 20 32C17.7909 32 16 33.7909 16 36C16 38.2091 17.7909 40 20 40C22.2091 40 24 38.2091 24 36Z" fill="#2E2E2E"/>
<path d="M24 20C24 17.7909 22.2091 16 20 16C17.7909 16 16 17.7909 16 20C16 22.2091 17.7909 24 20 24C22.2091 24 24 22.2091 24 20Z" fill="#2E2E2E"/>
<path d="M24 4C24 1.79086 22.2091 0 20 0C17.7909 0 16 1.79086 16 4C16 6.20914 17.7909 8 20 8C22.2091 8 24 6.20914 24 4Z" fill="#2E2E2E"/>
<path d="M40 52C40 49.7909 38.2091 48 36 48C33.7909 48 32 49.7909 32 52C32 54.2091 33.7909 56 36 56C38.2091 56 40 54.2091 40 52Z" fill="#2E2E2E"/>
<path d="M40 36C40 33.7909 38.2091 32 36 32C33.7909 32 32 33.7909 32 36C32 38.2091 33.7909 40 36 40C38.2091 40 40 38.2091 40 36Z" fill="#2E2E2E"/>
<path d="M40 20C40 17.7909 38.2091 16 36 16C33.7909 16 32 17.7909 32 20C32 22.2091 33.7909 24 36 24C38.2091 24 40 22.2091 40 20Z" fill="#2E2E2E"/>
<path d="M40 4C40 1.79086 38.2091 0 36 0C33.7909 0 32 1.79086 32 4C32 6.20914 33.7909 8 36 8C38.2091 8 40 6.20914 40 4Z" fill="#2E2E2E"/>
<path d="M56 68C56 65.7909 54.2091 64 52 64C49.7909 64 48 65.7909 48 68C48 70.2091 49.7909 72 52 72C54.2091 72 56 70.2091 56 68Z" fill="#2E2E2E"/>
<path d="M56 52C56 49.7909 54.2091 48 52 48C49.7909 48 48 49.7909 48 52C48 54.2091 49.7909 56 52 56C54.2091 56 56 54.2091 56 52Z" fill="#2E2E2E"/>
<path d="M56 36C56 33.7909 54.2091 32 52 32C49.7909 32 48 33.7909 48 36C48 38.2091 49.7909 40 52 40C54.2091 40 56 38.2091 56 36Z" fill="#2E2E2E"/>
<path d="M56 20C56 17.7909 54.2091 16 52 16C49.7909 16 48 17.7909 48 20C48 22.2091 49.7909 24 52 24C54.2091 24 56 22.2091 56 20Z" fill="#2E2E2E"/>
<path d="M56 4C56 1.79086 54.2091 0 52 0C49.7909 0 48 1.79086 48 4C48 6.20914 49.7909 8 52 8C54.2091 8 56 6.20914 56 4Z" fill="#2E2E2E"/>
<path d="M72 68C72 65.7909 70.2091 64 68 64C65.7909 64 64 65.7909 64 68C64 70.2091 65.7909 72 68 72C70.2091 72 72 70.2091 72 68Z" fill="#2E2E2E"/>
<path d="M72 52C72 49.7909 70.2091 48 68 48C65.7909 48 64 49.7909 64 52C64 54.2091 65.7909 56 68 56C70.2091 56 72 54.2091 72 52Z" fill="#2E2E2E"/>
<path d="M72 36C72 33.7909 70.2091 32 68 32C65.7909 32 64 33.7909 64 36C64 38.2091 65.7909 40 68 40C70.2091 40 72 38.2091 72 36Z" fill="#2E2E2E"/>
<path d="M72 20C72 17.7909 70.2091 16 68 16C65.7909 16 64 17.7909 64 20C64 22.2091 65.7909 24 68 24C70.2091 24 72 22.2091 72 20Z" fill="#2E2E2E"/>
<path d="M72 4C72 1.79086 70.2091 0 68 0C65.7909 0 64 1.79086 64 4C64 6.20914 65.7909 8 68 8C70.2091 8 72 6.20914 72 4Z" fill="#2E2E2E"/>
</svg>
