<svg width="20" height="20" viewBox="0 0 20 20" fill="none" xmlns="http://www.w3.org/2000/svg">
<path d="M17 3H3.666C2.75 3 2.008 3.75 2.008 4.667L2 14.667C2 15.584 2.75 16.334 3.666 16.334H17C17.916 16.334 18.666 15.584 18.666 14.667V4.667C18.666 3.75 17.916 3 17 3ZM16.666 6.542L10.775 10.226C10.6421 10.3078 10.4891 10.3512 10.333 10.3512C10.1769 10.3512 10.0239 10.3078 9.891 10.226L4 6.542C3.9176 6.49451 3.84562 6.4309 3.78835 6.35498C3.73107 6.27905 3.68968 6.19237 3.66665 6.1001C3.64361 6.00782 3.6394 5.91186 3.65427 5.81792C3.66914 5.72399 3.70278 5.63401 3.75318 5.55336C3.80359 5.47272 3.86972 5.40305 3.94764 5.34852C4.02556 5.294 4.11367 5.25573 4.20671 5.236C4.29974 5.21627 4.3958 5.21549 4.48914 5.2337C4.58249 5.25192 4.6712 5.28875 4.75 5.342L10.333 8.834L15.916 5.342C15.9948 5.28875 16.0835 5.25192 16.1769 5.2337C16.2702 5.21549 16.3663 5.21627 16.4593 5.236C16.5523 5.25573 16.6404 5.294 16.7184 5.34852C16.7963 5.40305 16.8624 5.47272 16.9128 5.55336C16.9632 5.63401 16.9969 5.72399 17.0117 5.81792C17.0266 5.91186 17.0224 6.00782 16.9994 6.1001C16.9763 6.19237 16.9349 6.27905 16.8777 6.35498C16.8204 6.4309 16.7484 6.49451 16.666 6.542Z" fill="#FFBB00"/>
</svg>
