<svg width="127" height="26" viewBox="0 0 127 26" fill="none" xmlns="http://www.w3.org/2000/svg">
<path d="M13.6 14.112C14.9013 14.3893 15.9467 15.04 16.736 16.064C17.5253 17.0667 17.92 18.2187 17.92 19.52C17.92 21.3973 17.2587 22.8907 15.936 24C14.6347 25.088 12.8107 25.632 10.464 25.632H0V3.168H10.112C12.3947 3.168 14.176 3.69067 15.456 4.736C16.7573 5.78133 17.408 7.2 17.408 8.992C17.408 10.3147 17.056 11.4133 16.352 12.288C15.6693 13.1627 14.752 13.7707 13.6 14.112ZM5.472 12.256H9.056C9.952 12.256 10.6347 12.064 11.104 11.68C11.5947 11.2747 11.84 10.688 11.84 9.92C11.84 9.152 11.5947 8.56534 11.104 8.16C10.6347 7.75467 9.952 7.552 9.056 7.552H5.472V12.256ZM9.504 21.216C10.4213 21.216 11.1253 21.0133 11.616 20.608C12.128 20.1813 12.384 19.5733 12.384 18.784C12.384 17.9947 12.1173 17.376 11.584 16.928C11.072 16.48 10.3573 16.256 9.44 16.256H5.472V21.216H9.504Z" fill="white"/>
<path d="M23.8458 5.92C22.8858 5.92 22.0964 5.64267 21.4778 5.088C20.8804 4.512 20.5818 3.808 20.5818 2.976C20.5818 2.12267 20.8804 1.41867 21.4778 0.864C22.0964 0.288 22.8858 0 23.8458 0C24.7844 0 25.5524 0.288 26.1497 0.864C26.7684 1.41867 27.0778 2.12267 27.0778 2.976C27.0778 3.808 26.7684 4.512 26.1497 5.088C25.5524 5.64267 24.7844 5.92 23.8458 5.92ZM26.5658 7.776V25.632H21.0938V7.776H26.5658Z" fill="white"/>
<path d="M41.4433 25.632L36.0033 18.144V25.632H30.5312V1.952H36.0033V15.04L41.4113 7.776H48.1632L40.7393 16.736L48.2272 25.632H41.4433Z" fill="white"/>
<path d="M49.2245 16.704C49.2245 14.848 49.5978 13.2267 50.3445 11.84C51.1125 10.4533 52.1685 9.38667 53.5125 8.64C54.8778 7.89333 56.4352 7.52 58.1845 7.52C60.4245 7.52 62.2912 8.10667 63.7845 9.28C65.2992 10.4533 66.2912 12.1067 66.7605 14.24H60.9365C60.4458 12.8747 59.4965 12.192 58.0885 12.192C57.0858 12.192 56.2858 12.5867 55.6885 13.376C55.0912 14.144 54.7925 15.2533 54.7925 16.704C54.7925 18.1547 55.0912 19.2747 55.6885 20.064C56.2858 20.832 57.0858 21.216 58.0885 21.216C59.4965 21.216 60.4458 20.5333 60.9365 19.168H66.7605C66.2912 21.2587 65.2992 22.9013 63.7845 24.096C62.2698 25.2907 60.4032 25.888 58.1845 25.888C56.4352 25.888 54.8778 25.5147 53.5125 24.768C52.1685 24.0213 51.1125 22.9547 50.3445 21.568C49.5978 20.1813 49.2245 18.56 49.2245 16.704Z" fill="white"/>
<path d="M75.1595 10.752C75.7995 9.77067 76.5995 9.00267 77.5595 8.448C78.5195 7.872 79.5862 7.584 80.7595 7.584V13.376H79.2555C77.8902 13.376 76.8662 13.6747 76.1835 14.272C75.5008 14.848 75.1595 15.872 75.1595 17.344V25.632H69.6875V7.776H75.1595V10.752Z" fill="white"/>
<path d="M82.287 16.672C82.287 14.8373 82.6283 13.2267 83.311 11.84C84.015 10.4533 84.9643 9.38667 86.159 8.64C87.3537 7.89333 88.687 7.52 90.159 7.52C91.4177 7.52 92.5163 7.776 93.455 8.288C94.415 8.8 95.151 9.472 95.663 10.304V7.776H101.135V25.632H95.663V23.104C95.1297 23.936 94.383 24.608 93.423 25.12C92.4843 25.632 91.3857 25.888 90.127 25.888C88.6763 25.888 87.3537 25.5147 86.159 24.768C84.9643 24 84.015 22.9227 83.311 21.536C82.6283 20.128 82.287 18.5067 82.287 16.672ZM95.663 16.704C95.663 15.3387 95.279 14.2613 94.511 13.472C93.7643 12.6827 92.847 12.288 91.759 12.288C90.671 12.288 89.743 12.6827 88.975 13.472C88.2283 14.24 87.855 15.3067 87.855 16.672C87.855 18.0373 88.2283 19.1253 88.975 19.936C89.743 20.7253 90.671 21.12 91.759 21.12C92.847 21.12 93.7643 20.7253 94.511 19.936C95.279 19.1467 95.663 18.0693 95.663 16.704Z" fill="white"/>
<path d="M114.054 12.32H111.11V25.632H105.638V12.32H103.654V7.776H105.638V7.264C105.638 5.06667 106.267 3.40267 107.526 2.272C108.784 1.12 110.63 0.544001 113.062 0.544001C113.467 0.544001 113.766 0.554667 113.958 0.576V5.216C112.912 5.152 112.176 5.30133 111.75 5.664C111.323 6.02667 111.11 6.67733 111.11 7.616V7.776H114.054V12.32Z" fill="white"/>
<path d="M126.577 20.992V25.632H123.793C121.809 25.632 120.262 25.152 119.153 24.192C118.044 23.2107 117.489 21.6213 117.489 19.424V12.32H115.313V7.776H117.489V3.424H122.961V7.776H126.545V12.32H122.961V19.488C122.961 20.0213 123.089 20.4053 123.345 20.64C123.601 20.8747 124.028 20.992 124.625 20.992H126.577Z" fill="white"/>
</svg>
